<svg width="540" height="80" viewBox="0 0 540 80" fill="none" xmlns="http://www.w3.org/2000/svg">
<rect width="540" height="80" fill="white"/>
<path d="M54.5625 39.2812C54.5625 43.7604 53.7708 47.6875 52.1875 51.0625C50.6042 54.4375 48.3333 57.0417 45.375 58.875C42.4375 60.7083 39.0625 61.625 35.25 61.625C31.4792 61.625 28.1146 60.7188 25.1562 58.9062C22.1979 57.0938 19.9062 54.5104 18.2812 51.1562C16.6562 47.7812 15.8333 43.9062 15.8125 39.5312V37.2812C15.8125 32.8021 16.6146 28.8646 18.2188 25.4688C19.8438 22.0521 22.125 19.4375 25.0625 17.625C28.0208 15.7917 31.3958 14.875 35.1875 14.875C38.9792 14.875 42.3438 15.7917 45.2812 17.625C48.2396 19.4375 50.5208 22.0521 52.125 25.4688C53.75 28.8646 54.5625 32.7917 54.5625 37.25V39.2812ZM45.0625 37.2188C45.0625 32.4479 44.2083 28.8229 42.5 26.3438C40.7917 23.8646 38.3542 22.625 35.1875 22.625C32.0417 22.625 29.6146 23.8542 27.9062 26.3125C26.1979 28.75 25.3333 32.3333 25.3125 37.0625V39.2812C25.3125 43.9271 26.1667 47.5312 27.875 50.0938C29.5833 52.6562 32.0417 53.9375 35.25 53.9375C38.3958 53.9375 40.8125 52.7083 42.5 50.25C44.1875 47.7708 45.0417 44.1667 45.0625 39.4375V37.2188Z" fill="black"/>
<path d="M66.3787 27.1875L66.66 31.0938C69.0767 28.0729 72.3163 26.5625 76.3788 26.5625C79.9621 26.5625 82.6288 27.6146 84.3788 29.7188C86.1288 31.8229 87.0246 34.9688 87.0663 39.1562V61H78.035V39.375C78.035 37.4583 77.6183 36.0729 76.785 35.2188C75.9517 34.3438 74.5662 33.9062 72.6287 33.9062C70.0871 33.9062 68.1808 34.9896 66.91 37.1562V61H57.8787V27.1875H66.3787Z" fill="black"/>
<path d="M105.664 61.625C100.705 61.625 96.6637 60.1042 93.5387 57.0625C90.4346 54.0208 88.8825 49.9688 88.8825 44.9062V44.0312C88.8825 40.6354 89.5387 37.6042 90.8512 34.9375C92.1637 32.25 94.0179 30.1875 96.4137 28.75C98.8304 27.2917 101.58 26.5625 104.664 26.5625C109.289 26.5625 112.924 28.0208 115.57 30.9375C118.237 33.8542 119.57 37.9896 119.57 43.3438V47.0312H98.0387C98.3304 49.2396 99.2054 51.0104 100.664 52.3438C102.143 53.6771 104.007 54.3438 106.257 54.3438C109.737 54.3438 112.455 53.0833 114.414 50.5625L118.851 55.5312C117.497 57.4479 115.664 58.9479 113.351 60.0312C111.039 61.0938 108.476 61.625 105.664 61.625ZM104.632 33.875C102.841 33.875 101.382 34.4792 100.257 35.6875C99.1533 36.8958 98.445 38.625 98.1325 40.875H110.695V40.1562C110.653 38.1562 110.112 36.6146 109.07 35.5312C108.028 34.4271 106.549 33.875 104.632 33.875Z" fill="black"/>
<path d="M158.781 50.0625C158.781 48.2917 158.156 46.9375 156.906 46C155.656 45.0417 153.406 44.0417 150.156 43C146.906 41.9375 144.333 40.8958 142.438 39.875C137.271 37.0833 134.688 33.3229 134.688 28.5938C134.688 26.1354 135.375 23.9479 136.75 22.0312C138.146 20.0938 140.135 18.5833 142.719 17.5C145.323 16.4167 148.24 15.875 151.469 15.875C154.719 15.875 157.615 16.4688 160.156 17.6562C162.698 18.8229 164.667 20.4792 166.062 22.625C167.479 24.7708 168.188 27.2083 168.188 29.9375H158.812C158.812 27.8542 158.156 26.2396 156.844 25.0938C155.531 23.9271 153.688 23.3438 151.312 23.3438C149.021 23.3438 147.24 23.8333 145.969 24.8125C144.698 25.7708 144.062 27.0417 144.062 28.625C144.062 30.1042 144.802 31.3438 146.281 32.3438C147.781 33.3438 149.979 34.2812 152.875 35.1562C158.208 36.7604 162.094 38.75 164.531 41.125C166.969 43.5 168.188 46.4583 168.188 50C168.188 53.9375 166.698 57.0312 163.719 59.2812C160.74 61.5104 156.729 62.625 151.688 62.625C148.188 62.625 145 61.9896 142.125 60.7188C139.25 59.4271 137.052 57.6667 135.531 55.4375C134.031 53.2083 133.281 50.625 133.281 47.6875H142.688C142.688 52.7083 145.688 55.2188 151.688 55.2188C153.917 55.2188 155.656 54.7708 156.906 53.875C158.156 52.9583 158.781 51.6875 158.781 50.0625Z" fill="#EC4949"/>
<path d="M186.816 62.625C181.858 62.625 177.816 61.1042 174.691 58.0625C171.587 55.0208 170.035 50.9688 170.035 45.9062V45.0312C170.035 41.6354 170.691 38.6042 172.004 35.9375C173.316 33.25 175.17 31.1875 177.566 29.75C179.983 28.2917 182.733 27.5625 185.816 27.5625C190.441 27.5625 194.077 29.0208 196.723 31.9375C199.389 34.8542 200.723 38.9896 200.723 44.3438V48.0312H179.191C179.483 50.2396 180.358 52.0104 181.816 53.3438C183.295 54.6771 185.16 55.3438 187.41 55.3438C190.889 55.3438 193.608 54.0833 195.566 51.5625L200.004 56.5312C198.65 58.4479 196.816 59.9479 194.504 61.0312C192.191 62.0938 189.629 62.625 186.816 62.625ZM185.785 34.875C183.993 34.875 182.535 35.4792 181.41 36.6875C180.306 37.8958 179.597 39.625 179.285 41.875H191.847V41.1562C191.806 39.1562 191.264 37.6146 190.222 36.5312C189.181 35.4271 187.702 34.875 185.785 34.875Z" fill="#EC4949"/>
<path d="M210.351 28.1875L210.632 32.0938C213.049 29.0729 216.289 27.5625 220.351 27.5625C223.935 27.5625 226.601 28.6146 228.351 30.7188C230.101 32.8229 230.997 35.9688 231.039 40.1562V62H222.007V40.375C222.007 38.4583 221.591 37.0729 220.757 36.2188C219.924 35.3438 218.539 34.9062 216.601 34.9062C214.06 34.9062 212.153 35.9896 210.882 38.1562V62H201.851V28.1875H210.351Z" fill="#EC4949"/>
<path d="M244.886 19.875V28.1875H250.668V34.8125H244.886V51.6875C244.886 52.9375 245.126 53.8333 245.605 54.375C246.084 54.9167 247.001 55.1875 248.355 55.1875C249.355 55.1875 250.24 55.1146 251.011 54.9688V61.8125C249.24 62.3542 247.418 62.625 245.543 62.625C239.209 62.625 235.98 59.4271 235.855 53.0312V34.8125H230.918V28.1875H235.855V19.875H244.886Z" fill="#EC4949"/>
<path d="M267.421 62.625C262.463 62.625 258.421 61.1042 255.296 58.0625C252.192 55.0208 250.64 50.9688 250.64 45.9062V45.0312C250.64 41.6354 251.296 38.6042 252.609 35.9375C253.921 33.25 255.775 31.1875 258.171 29.75C260.588 28.2917 263.338 27.5625 266.421 27.5625C271.046 27.5625 274.682 29.0208 277.327 31.9375C279.994 34.8542 281.327 38.9896 281.327 44.3438V48.0312H259.796C260.088 50.2396 260.963 52.0104 262.421 53.3438C263.9 54.6771 265.765 55.3438 268.015 55.3438C271.494 55.3438 274.213 54.0833 276.171 51.5625L280.609 56.5312C279.255 58.4479 277.421 59.9479 275.109 61.0312C272.796 62.0938 270.234 62.625 267.421 62.625ZM266.39 34.875C264.598 34.875 263.14 35.4792 262.015 36.6875C260.911 37.8958 260.202 39.625 259.89 41.875H272.452V41.1562C272.411 39.1562 271.869 37.6146 270.827 36.5312C269.786 35.4271 268.307 34.875 266.39 34.875Z" fill="#EC4949"/>
<path d="M290.956 28.1875L291.238 32.0938C293.654 29.0729 296.894 27.5625 300.956 27.5625C304.54 27.5625 307.206 28.6146 308.956 30.7188C310.706 32.8229 311.602 35.9688 311.644 40.1562V62H302.613V40.375C302.613 38.4583 302.196 37.0729 301.363 36.2188C300.529 35.3438 299.144 34.9062 297.206 34.9062C294.665 34.9062 292.758 35.9896 291.488 38.1562V62H282.456V28.1875H290.956Z" fill="#EC4949"/>
<path d="M328.741 55.3438C330.408 55.3438 331.762 54.8854 332.804 53.9688C333.845 53.0521 334.387 51.8333 334.429 50.3125H342.898C342.877 52.6042 342.252 54.7083 341.023 56.625C339.793 58.5208 338.106 60 335.96 61.0625C333.835 62.1042 331.481 62.625 328.898 62.625C324.064 62.625 320.252 61.0938 317.46 58.0312C314.668 54.9479 313.273 50.6979 313.273 45.2812V44.6875C313.273 39.4792 314.658 35.3229 317.429 32.2188C320.2 29.1146 324.002 27.5625 328.835 27.5625C333.064 27.5625 336.45 28.7708 338.991 31.1875C341.554 33.5833 342.856 36.7812 342.898 40.7812H334.429C334.387 39.0312 333.845 37.6146 332.804 36.5312C331.762 35.4271 330.387 34.875 328.679 34.875C326.575 34.875 324.981 35.6458 323.898 37.1875C322.835 38.7083 322.304 41.1875 322.304 44.625V45.5625C322.304 49.0417 322.835 51.5417 323.898 53.0625C324.96 54.5833 326.575 55.3438 328.741 55.3438Z" fill="#EC4949"/>
<path d="M359.776 62.625C354.818 62.625 350.776 61.1042 347.651 58.0625C344.547 55.0208 342.995 50.9688 342.995 45.9062V45.0312C342.995 41.6354 343.651 38.6042 344.964 35.9375C346.276 33.25 348.13 31.1875 350.526 29.75C352.943 28.2917 355.693 27.5625 358.776 27.5625C363.401 27.5625 367.037 29.0208 369.682 31.9375C372.349 34.8542 373.682 38.9896 373.682 44.3438V48.0312H352.151C352.443 50.2396 353.318 52.0104 354.776 53.3438C356.255 54.6771 358.12 55.3438 360.37 55.3438C363.849 55.3438 366.568 54.0833 368.526 51.5625L372.964 56.5312C371.61 58.4479 369.776 59.9479 367.464 61.0312C365.151 62.0938 362.589 62.625 359.776 62.625ZM358.745 34.875C356.953 34.875 355.495 35.4792 354.37 36.6875C353.266 37.8958 352.557 39.625 352.245 41.875H364.807V41.1562C364.766 39.1562 364.224 37.6146 363.182 36.5312C362.141 35.4271 360.662 34.875 358.745 34.875Z" fill="#EC4949"/>
<path d="M408.062 62C407.646 61.1875 407.344 60.1771 407.156 58.9688C404.969 61.4062 402.125 62.625 398.625 62.625C395.312 62.625 392.562 61.6667 390.375 59.75C388.208 57.8333 387.125 55.4167 387.125 52.5C387.125 48.9167 388.448 46.1667 391.094 44.25C393.76 42.3333 397.604 41.3646 402.625 41.3438H406.781V39.4062C406.781 37.8438 406.375 36.5938 405.562 35.6562C404.771 34.7188 403.51 34.25 401.781 34.25C400.26 34.25 399.062 34.6146 398.188 35.3438C397.333 36.0729 396.906 37.0729 396.906 38.3438H387.875C387.875 36.3854 388.479 34.5729 389.688 32.9062C390.896 31.2396 392.604 29.9375 394.812 29C397.021 28.0417 399.5 27.5625 402.25 27.5625C406.417 27.5625 409.719 28.6146 412.156 30.7188C414.615 32.8021 415.844 35.7396 415.844 39.5312V54.1875C415.865 57.3958 416.312 59.8229 417.188 61.4688V62H408.062ZM400.594 55.7188C401.927 55.7188 403.156 55.4271 404.281 54.8438C405.406 54.2396 406.24 53.4375 406.781 52.4375V46.625H403.406C398.885 46.625 396.479 48.1875 396.188 51.3125L396.156 51.8438C396.156 52.9688 396.552 53.8958 397.344 54.625C398.135 55.3542 399.219 55.7188 400.594 55.7188Z" fill="#3494EC"/>
<path d="M430.188 62V16.5H444.188C448.188 16.5 451.76 17.4062 454.906 19.2188C458.073 21.0104 460.542 23.5729 462.312 26.9062C464.083 30.2188 464.969 33.9896 464.969 38.2188V40.3125C464.969 44.5417 464.094 48.3021 462.344 51.5938C460.615 54.8854 458.167 57.4375 455 59.25C451.833 61.0625 448.26 61.9792 444.281 62H430.188ZM439.562 24.0938V54.4688H444.094C447.76 54.4688 450.562 53.2708 452.5 50.875C454.438 48.4792 455.427 45.0521 455.469 40.5938V38.1875C455.469 33.5625 454.51 30.0625 452.594 27.6875C450.677 25.2917 447.875 24.0938 444.188 24.0938H439.562Z" fill="#1DB02B"/>
<path d="M488.097 62C487.681 61.1875 487.379 60.1771 487.191 58.9688C485.004 61.4062 482.16 62.625 478.66 62.625C475.347 62.625 472.597 61.6667 470.41 59.75C468.243 57.8333 467.16 55.4167 467.16 52.5C467.16 48.9167 468.483 46.1667 471.129 44.25C473.795 42.3333 477.639 41.3646 482.66 41.3438H486.816V39.4062C486.816 37.8438 486.41 36.5938 485.597 35.6562C484.806 34.7188 483.545 34.25 481.816 34.25C480.295 34.25 479.097 34.6146 478.222 35.3438C477.368 36.0729 476.941 37.0729 476.941 38.3438H467.91C467.91 36.3854 468.514 34.5729 469.722 32.9062C470.931 31.2396 472.639 29.9375 474.847 29C477.056 28.0417 479.535 27.5625 482.285 27.5625C486.452 27.5625 489.754 28.6146 492.191 30.7188C494.65 32.8021 495.879 35.7396 495.879 39.5312V54.1875C495.9 57.3958 496.348 59.8229 497.223 61.4688V62H488.097ZM480.629 55.7188C481.962 55.7188 483.191 55.4271 484.316 54.8438C485.441 54.2396 486.275 53.4375 486.816 52.4375V46.625H483.441C478.92 46.625 476.514 48.1875 476.222 51.3125L476.191 51.8438C476.191 52.9688 476.587 53.8958 477.379 54.625C478.17 55.3542 479.254 55.7188 480.629 55.7188Z" fill="#1DB02B"/>
<path d="M511.101 49.2188L517.351 28.1875H527.039L513.445 67.25L512.695 69.0312C510.674 73.4479 507.341 75.6562 502.695 75.6562C501.382 75.6562 500.049 75.4583 498.695 75.0625V68.2188L500.07 68.25C501.778 68.25 503.049 67.9896 503.882 67.4688C504.737 66.9479 505.403 66.0833 505.882 64.875L506.945 62.0938L495.101 28.1875H504.82L511.101 49.2188Z" fill="#1DB02B"/>
</svg>
